<svg data-v-0dd9719b="" version="1.0" xmlns="http://www.w3.org/2000/svg" xmlns:xlink="http://www.w3.org/1999/xlink" viewBox="0 0 340.000000 110.000000"  color-interpolation-filters="sRGB">  <!----> <g data-v-0dd9719b="" fill="#379924" class="bordersvg b-d1" data-darkreader-inline-fill="" style="--darkreader-inline-fill: #379924;" transform="translate(35.30999755859375,8.39700317382812)"><polyline stroke="#379924" stroke-width="3" fill-opacity="0" fill="#000000" data-darkreader-inline-fill="" data-darkreader-inline-stroke="" style="--darkreader-inline-fill: #ffffff; --darkreader-inline-stroke: #379924;" points="134.69000244140625,20 134.69000244140625,10 0,0 0,93.20599746704102 134.69000244140625,83.20599746704102 134.69000244140625,73.20599746704102"></polyline> <g transform="translate(0,20)"><g><rect data-gra="graph-name-bg" stroke-width="2" class="i-icon-bg" x="0" y="0" width="269.3800048828125" height="53.205997467041016" fill-opacity="0"></rect> <!----> <!----> </g> <g transform="translate(10,3)"><g data-gra="path-name" fill-rule="" class="tp-name" transform="translate(0,0)"><g transform="scale(1)"><g><path d="M41.75-25.9L27.71-25.78 21.82-11.13 16.82-25.78 0.81-25.78 1.21-15.21 4.6-15.29 4.68-3.91 1.82-3.99 1.9-0.12 13.8 0.08 13.51-3.59 10.61-3.67 10.49-15.77 17.43 0.93 22.06 0.69 29.53-15.65 29.12-3.67 25.69-3.51 25.61 0 41.59 0.24C41.59 0.24 42.07-3.75 41.67-3.75 41.26-3.75 38.44-3.71 38.44-3.71L38.28-15.05 40.98-14.92ZM70.77-6.37C74.32-18.8 66.89-22.59 59.03-22.59 51.2-22.59 46.85-18.68 46.85-9.52 46.85-0.12 54.67 0.81 59.07 0.81 63.46 0.81 69.84-1.25 69.84-1.25L70.52-5.08C70.52-5.08 64.84-3.35 60.08-3.35 55.32-3.35 55.16-6.33 55.16-6.33ZM63.18-9.72L55.07-9.44C55.07-9.44 54.07-12.71 59.27-12.71 64.43-12.71 63.18-9.72 63.18-9.72ZM101.03-6.37C104.58-18.8 97.16-22.59 89.3-22.59 81.47-22.59 77.11-18.68 77.11-9.52 77.11-0.12 84.94 0.81 89.34 0.81 93.73 0.81 100.11-1.25 100.11-1.25L100.79-5.08C100.79-5.08 95.1-3.35 90.34-3.35 85.58-3.35 85.42-6.33 85.42-6.33ZM93.45-9.72L85.34-9.44C85.34-9.44 84.33-12.71 89.54-12.71 94.7-12.71 93.45-9.72 93.45-9.72ZM123.07-0.89L123.07-4.48C123.07-4.48 118.72-2.78 118.76-5.24L118.92-10.85 122.35-10.81 122.79-21.7 119.28-21.74 119.44-25.33 110.61-25.37 110.57-21.7 106.98-21.74 107.18-10.77 110.69-10.81 110.77-5.53C110.77-3.59 111.66 0.32 116.54 0.32 121.42 0.32 123.07-0.89 123.07-0.89ZM157.66-25.98L127.69-25.98 127.89-9.6 134.58-9.48 134.18-15.69 138.09-15.85 137.69-3.91 133.37-3.99 133.7 0 151.48 0 151.57-3.71 147.29-3.71 147.17-16.05 151.08-16.09 150.68-9.8 156.97-10.61ZM187.04-9.68C187.04-17.79 184.86-22.71 174.85-22.71 165.25-22.71 162.67-17.95 162.67-9.68 162.67-1.77 168.68 0.89 174.94 0.89 181.19 0.89 187.04-2.06 187.04-9.68ZM179.05-7.62C179.05-4.36 177.56-3.47 175.1-3.47 172.6-3.47 170.9-3.95 170.9-7.34 170.9-10.73 171.83-11.82 174.65-11.82 177.56-11.82 179.05-10.93 179.05-7.62ZM219.97-21.7L207.86-21.78 207.78-10.73 210.69-10.73 206.86-4.52 203.27-10.81 205.57-10.77 205.57-21.66 191.85-21.42 192.17-10.65 194.84-10.61 201.41 0.2 204.15 0.2 201.49 4.32 197.42 4.28 197.54 8.07 212.14 8.07 211.78 4.52 207.3 4.48 216.17-10.65 219.56-10.65ZM250.19-22.14L239.95-21.9 240.07-17.06C239.63-18.88 237.89-22.35 232.08-22.35 226.76-22.35 224.38-18.96 224.38-14.6 224.38-10.21 227.52-7.62 232.12-6.94L240.27-5.65C243.62-5.12 243.94-3.27 240.23-3.27 236.76-3.27 235.19-4.72 234.87-5.57L226.92-5.65 226.8 0.73 231.52 0.4 231.52-2.94C232.45-1.49 234.82 0.44 239.54 0.44 244.75 0.44 247.93-1.65 247.93-4.8 247.93-7.7 245.88-8.83 242.41-9.76L235.75-11.58C233.29-12.26 233.45-14.56 235.95-14.56 238.37-14.56 239.5-13.27 239.95-11.74L249.39-11.5Z" transform="translate(-0.8100000023841858, 25.979999542236328)"></path></g> <!----> <!----> <!----> <!----> <!----> <!----> <!----></g></g> <g data-gra="path-slogan" fill-rule="" class="tp-slogan" transform="translate(5,39.04999923706055)"><rect x="0" height="1" y="3.580000400543213" width="48.095001220703125"></rect> <rect height="1" y="3.580000400543213" width="48.095001220703125" x="191.28500366210938"></rect> <g transform="translate(51.095001220703125,0)"><g transform="scale(1)"><path d="M0.62-3.94C0.62-3.30 0.71-2.72 0.88-2.21C1.05-1.71 1.29-1.28 1.60-0.93C1.91-0.58 2.27-0.32 2.69-0.13C3.11 0.05 3.57 0.14 4.07 0.14C4.57 0.14 5.02 0.04 5.41-0.16C5.80-0.36 6.16-0.64 6.47-1.00L5.90-1.61C5.65-1.33 5.38-1.11 5.09-0.96C4.81-0.81 4.48-0.73 4.09-0.73C3.72-0.73 3.38-0.81 3.08-0.96C2.78-1.11 2.52-1.33 2.32-1.61C2.11-1.89 1.95-2.23 1.83-2.62C1.71-3.02 1.66-3.46 1.66-3.96C1.66-4.45 1.72-4.89 1.84-5.28C1.96-5.67 2.12-6.01 2.34-6.28C2.56-6.56 2.82-6.77 3.12-6.92C3.42-7.07 3.76-7.14 4.14-7.14C4.48-7.14 4.77-7.07 5.02-6.94C5.27-6.81 5.50-6.63 5.71-6.41L6.28-7.04C6.04-7.30 5.75-7.53 5.39-7.72C5.03-7.92 4.61-8.02 4.13-8.02C3.62-8.02 3.16-7.92 2.73-7.73C2.30-7.55 1.93-7.28 1.62-6.92C1.31-6.57 1.06-6.14 0.89-5.64C0.71-5.14 0.62-4.57 0.62-3.94ZM7.93-7.87L7.93 0L8.93 0L8.93-3.71L12.59-3.71L12.59 0L13.60 0L13.60-7.87L12.59-7.87L12.59-4.57L8.93-4.57L8.93-7.87ZM15.76-7.87L15.76 0L20.41 0L20.41-0.85L16.75-0.85L16.75-3.71L19.74-3.71L19.74-4.56L16.75-4.56L16.75-7.03L20.29-7.03L20.29-7.87ZM25.43-3.20L23.06-3.20L23.44-4.40C23.58-4.84 23.72-5.28 23.84-5.72C23.97-6.15 24.10-6.60 24.22-7.06L24.26-7.06C24.39-6.60 24.52-6.15 24.65-5.72C24.78-5.28 24.91-4.84 25.06-4.40ZM25.68-2.40L26.42 0L27.49 0L24.83-7.87L23.70-7.87L21.04 0L22.06 0L22.81-2.40ZM29.76-7.03L29.76 0L30.77 0L30.77-7.03L33.14-7.03L33.14-7.87L27.38-7.87L27.38-7.03ZM34.12-1.72L33.52-1.02C33.86-0.66 34.27-0.38 34.74-0.17C35.21 0.04 35.72 0.14 36.28 0.14C36.69 0.14 37.06 0.09 37.39-0.03C37.72-0.15 38.00-0.31 38.23-0.51C38.46-0.71 38.64-0.95 38.77-1.22C38.89-1.50 38.95-1.79 38.95-2.10C38.95-2.39 38.91-2.64 38.83-2.86C38.74-3.08 38.63-3.27 38.48-3.44C38.34-3.60 38.17-3.75 37.97-3.87C37.77-3.99 37.56-4.10 37.33-4.20L36.22-4.68C36.06-4.74 35.90-4.81 35.75-4.89C35.60-4.97 35.46-5.05 35.33-5.15C35.20-5.25 35.10-5.37 35.02-5.50C34.95-5.63 34.91-5.80 34.91-5.99C34.91-6.35 35.04-6.63 35.31-6.83C35.58-7.04 35.93-7.14 36.37-7.14C36.74-7.14 37.07-7.07 37.36-6.94C37.65-6.81 37.92-6.63 38.16-6.40L38.70-7.04C38.42-7.33 38.08-7.57 37.68-7.75C37.28-7.93 36.84-8.02 36.37-8.02C36.01-8.02 35.68-7.96 35.38-7.86C35.08-7.76 34.82-7.61 34.60-7.42C34.38-7.23 34.21-7.01 34.09-6.76C33.96-6.50 33.90-6.22 33.90-5.93C33.90-5.64 33.95-5.39 34.04-5.17C34.14-4.95 34.26-4.76 34.42-4.60C34.57-4.44 34.74-4.30 34.93-4.19C35.12-4.08 35.31-3.98 35.50-3.90L36.62-3.41C36.81-3.32 36.98-3.24 37.14-3.16C37.30-3.08 37.44-2.99 37.55-2.89C37.67-2.79 37.76-2.67 37.83-2.53C37.90-2.39 37.93-2.22 37.93-2.02C37.93-1.63 37.79-1.32 37.50-1.09C37.21-0.85 36.81-0.73 36.29-0.73C35.88-0.73 35.49-0.82 35.11-1.00C34.73-1.18 34.40-1.42 34.12-1.72ZM42.92-7.87L42.92 0L43.92 0L43.92-3.53L46.92-3.53L46.92-4.37L43.92-4.37L43.92-7.03L47.46-7.03L47.46-7.87ZM51.64 0.14C52.13 0.14 52.59 0.05 53.00-0.14C53.41-0.34 53.77-0.61 54.07-0.97C54.37-1.32 54.60-1.75 54.76-2.26C54.93-2.77 55.01-3.34 55.01-3.97C55.01-4.60 54.93-5.16 54.76-5.66C54.60-6.16 54.37-6.58 54.07-6.93C53.77-7.28 53.41-7.55 53.00-7.73C52.59-7.92 52.13-8.02 51.64-8.02C51.14-8.02 50.69-7.92 50.27-7.74C49.86-7.56 49.51-7.29 49.21-6.94C48.92-6.59 48.69-6.17 48.52-5.67C48.36-5.17 48.28-4.60 48.28-3.97C48.28-3.34 48.36-2.77 48.52-2.26C48.69-1.75 48.92-1.32 49.21-0.97C49.51-0.61 49.86-0.34 50.27-0.14C50.69 0.05 51.14 0.14 51.64 0.14ZM51.64-0.73C51.28-0.73 50.97-0.81 50.68-0.96C50.40-1.11 50.15-1.33 49.95-1.61C49.75-1.90 49.59-2.24 49.48-2.63C49.36-3.03 49.31-3.48 49.31-3.97C49.31-4.46 49.36-4.90 49.48-5.29C49.59-5.68 49.75-6.02 49.95-6.29C50.15-6.56 50.40-6.77 50.68-6.92C50.97-7.07 51.28-7.14 51.64-7.14C51.99-7.14 52.31-7.07 52.59-6.92C52.87-6.77 53.12-6.56 53.32-6.29C53.53-6.02 53.68-5.68 53.80-5.29C53.91-4.90 53.96-4.46 53.96-3.97C53.96-3.48 53.91-3.03 53.80-2.63C53.68-2.24 53.53-1.90 53.32-1.61C53.12-1.33 52.87-1.11 52.59-0.96C52.31-0.81 51.99-0.73 51.64-0.73ZM57.70-4.14L57.70-7.07L59.02-7.07C59.63-7.07 60.10-6.96 60.43-6.76C60.76-6.55 60.92-6.18 60.92-5.66C60.92-5.15 60.76-4.77 60.43-4.52C60.10-4.27 59.63-4.14 59.02-4.14ZM61.02 0L62.15 0L60.16-3.43C60.69-3.57 61.12-3.82 61.44-4.19C61.76-4.56 61.92-5.05 61.92-5.66C61.92-6.07 61.85-6.42 61.72-6.70C61.58-6.98 61.39-7.20 61.15-7.38C60.90-7.56 60.61-7.68 60.27-7.76C59.93-7.83 59.56-7.87 59.16-7.87L56.70-7.87L56.70 0L57.70 0L57.70-3.32L59.12-3.32ZM65.64-3.94C65.64-3.30 65.73-2.72 65.90-2.21C66.08-1.71 66.32-1.28 66.64-0.93C66.95-0.58 67.32-0.32 67.75-0.13C68.18 0.05 68.66 0.14 69.18 0.14C69.71 0.14 70.18 0.06 70.60-0.11C71.02-0.29 71.36-0.50 71.62-0.77L71.62-4.08L69.04-4.08L69.04-3.25L70.70-3.25L70.70-1.20C70.54-1.06 70.34-0.94 70.09-0.86C69.83-0.77 69.57-0.73 69.29-0.73C68.86-0.73 68.49-0.81 68.17-0.96C67.84-1.11 67.57-1.33 67.35-1.61C67.13-1.89 66.96-2.23 66.85-2.62C66.73-3.02 66.67-3.46 66.67-3.96C66.67-4.45 66.73-4.89 66.86-5.28C66.98-5.67 67.16-6.01 67.38-6.28C67.60-6.56 67.88-6.77 68.20-6.92C68.52-7.07 68.88-7.14 69.28-7.14C69.68-7.14 70.01-7.07 70.27-6.93C70.53-6.79 70.76-6.62 70.96-6.41L71.52-7.04C71.29-7.28 70.99-7.51 70.63-7.71C70.26-7.91 69.81-8.02 69.26-8.02C68.74-8.02 68.25-7.92 67.81-7.73C67.37-7.55 66.99-7.28 66.67-6.92C66.34-6.57 66.09-6.14 65.91-5.64C65.73-5.14 65.64-4.57 65.64-3.94ZM76.40 0.14C76.90 0.14 77.35 0.05 77.77-0.14C78.18-0.34 78.53-0.61 78.83-0.97C79.13-1.32 79.37-1.75 79.53-2.26C79.69-2.77 79.78-3.34 79.78-3.97C79.78-4.60 79.69-5.16 79.53-5.66C79.37-6.16 79.13-6.58 78.83-6.93C78.53-7.28 78.18-7.55 77.77-7.73C77.35-7.92 76.90-8.02 76.40-8.02C75.91-8.02 75.45-7.92 75.04-7.74C74.63-7.56 74.28-7.29 73.98-6.94C73.68-6.59 73.45-6.17 73.29-5.67C73.13-5.17 73.04-4.60 73.04-3.97C73.04-3.34 73.13-2.77 73.29-2.26C73.45-1.75 73.68-1.32 73.98-0.97C74.28-0.61 74.63-0.34 75.04-0.14C75.45 0.05 75.91 0.14 76.40 0.14ZM76.40-0.73C76.05-0.73 75.73-0.81 75.45-0.96C75.17-1.11 74.92-1.33 74.72-1.61C74.51-1.90 74.36-2.24 74.24-2.63C74.13-3.03 74.08-3.48 74.08-3.97C74.08-4.46 74.13-4.90 74.24-5.29C74.36-5.68 74.51-6.02 74.72-6.29C74.92-6.56 75.17-6.77 75.45-6.92C75.73-7.07 76.05-7.14 76.40-7.14C76.76-7.14 77.07-7.07 77.36-6.92C77.64-6.77 77.89-6.56 78.09-6.29C78.29-6.02 78.45-5.68 78.56-5.29C78.68-4.90 78.73-4.46 78.73-3.97C78.73-3.48 78.68-3.03 78.56-2.63C78.45-2.24 78.29-1.90 78.09-1.61C77.89-1.33 77.64-1.11 77.36-0.96C77.07-0.81 76.76-0.73 76.40-0.73ZM84.37 0.14C84.87 0.14 85.32 0.05 85.73-0.14C86.15-0.34 86.50-0.61 86.80-0.97C87.10-1.32 87.33-1.75 87.50-2.26C87.66-2.77 87.74-3.34 87.74-3.97C87.74-4.60 87.66-5.16 87.50-5.66C87.33-6.16 87.10-6.58 86.80-6.93C86.50-7.28 86.15-7.55 85.73-7.73C85.32-7.92 84.87-8.02 84.37-8.02C83.88-8.02 83.42-7.92 83.01-7.74C82.60-7.56 82.24-7.29 81.95-6.94C81.65-6.59 81.42-6.17 81.26-5.67C81.09-5.17 81.01-4.60 81.01-3.97C81.01-3.34 81.09-2.77 81.26-2.26C81.42-1.75 81.65-1.32 81.95-0.97C82.24-0.61 82.60-0.34 83.01-0.14C83.42 0.05 83.88 0.14 84.37 0.14ZM84.37-0.73C84.02-0.73 83.70-0.81 83.42-0.96C83.13-1.11 82.89-1.33 82.69-1.61C82.48-1.90 82.32-2.24 82.21-2.63C82.10-3.03 82.04-3.48 82.04-3.97C82.04-4.46 82.10-4.90 82.21-5.29C82.32-5.68 82.48-6.02 82.69-6.29C82.89-6.56 83.13-6.77 83.42-6.92C83.70-7.07 84.02-7.14 84.37-7.14C84.72-7.14 85.04-7.07 85.33-6.92C85.61-6.77 85.85-6.56 86.06-6.29C86.26-6.02 86.42-5.68 86.53-5.29C86.64-4.90 86.70-4.46 86.70-3.97C86.70-3.48 86.64-3.03 86.53-2.63C86.42-2.24 86.26-1.90 86.06-1.61C85.85-1.33 85.61-1.11 85.33-0.96C85.04-0.81 84.72-0.73 84.37-0.73ZM88.98-3.94C88.98-3.30 89.07-2.72 89.24-2.21C89.42-1.71 89.66-1.28 89.98-0.93C90.29-0.58 90.66-0.32 91.09-0.13C91.52 0.05 92.00 0.14 92.52 0.14C93.05 0.14 93.52 0.06 93.94-0.11C94.36-0.29 94.70-0.50 94.96-0.77L94.96-4.08L92.38-4.08L92.38-3.25L94.04-3.25L94.04-1.20C93.88-1.06 93.68-0.94 93.43-0.86C93.17-0.77 92.91-0.73 92.63-0.73C92.20-0.73 91.83-0.81 91.51-0.96C91.18-1.11 90.91-1.33 90.69-1.61C90.47-1.89 90.30-2.23 90.19-2.62C90.07-3.02 90.01-3.46 90.01-3.96C90.01-4.45 90.07-4.89 90.20-5.28C90.32-5.67 90.50-6.01 90.72-6.28C90.94-6.56 91.22-6.77 91.54-6.92C91.86-7.07 92.22-7.14 92.62-7.14C93.02-7.14 93.35-7.07 93.61-6.93C93.87-6.79 94.10-6.62 94.30-6.41L94.86-7.04C94.63-7.28 94.33-7.51 93.97-7.71C93.60-7.91 93.15-8.02 92.60-8.02C92.08-8.02 91.59-7.92 91.15-7.73C90.71-7.55 90.33-7.28 90.01-6.92C89.68-6.57 89.43-6.14 89.25-5.64C89.07-5.14 88.98-4.57 88.98-3.94ZM96.84-7.87L96.84 0L101.28 0L101.28-0.85L97.84-0.85L97.84-7.87ZM102.67-7.87L102.67 0L107.33 0L107.33-0.85L103.67-0.85L103.67-3.71L106.66-3.71L106.66-4.56L103.67-4.56L103.67-7.03L107.21-7.03L107.21-7.87ZM111.42-7.87L111.42 0L112.34 0L112.34-4.33C112.34-4.68 112.33-5.07 112.30-5.50C112.26-5.92 112.24-6.31 112.21-6.66L112.26-6.66L112.88-4.91L114.41-0.79L114.97-0.79L116.48-4.91L117.12-6.66L117.17-6.66C117.14-6.31 117.11-5.92 117.08-5.50C117.05-5.07 117.04-4.68 117.04-4.33L117.04 0L117.98 0L117.98-7.87L116.81-7.87L115.30-3.65L114.74-2.04L114.70-2.04L114.12-3.65L112.60-7.87ZM120.14-7.87L120.14 0L124.80 0L124.80-0.85L121.14-0.85L121.14-3.71L124.13-3.71L124.13-4.56L121.14-4.56L121.14-7.03L124.68-7.03L124.68-7.87ZM126.47-7.87L126.47 0L131.12 0L131.12-0.85L127.46-0.85L127.46-3.71L130.45-3.71L130.45-4.56L127.46-4.56L127.46-7.03L131.00-7.03L131.00-7.87ZM134.42-7.03L134.42 0L135.43 0L135.43-7.03L137.81-7.03L137.81-7.87L132.05-7.87L132.05-7.03Z" transform="translate(-0.624, 8.016)"></path></g></g></g></g></g></g><defs v-gra="od"></defs></svg>